P3
# tiraimg export
32 16
255
112 97 54
63 57 31
198 187 119
191 184 118
197 190 122
195 186 115
185 176 107
178 176 113
174 176 117
132 125 85
92 72 35
99 73 34
106 79 40
126 105 60
128 119 76
153 158 116
164 185 154
153 175 150
162 179 147
167 174 129
163 165 114
174 181 135
180 187 141
170 176 126
171 176 131
170 180 141
166 176 135
171 179 141
163 172 131
161 169 131
160 168 130
170 175 133
189 183 119
156 152 103
192 189 126
196 193 130
204 198 134
203 194 123
196 190 124
168 163 107
79 64 33
72 50 23
95 70 38
90 63 32
87 60 29
91 64 31
102 77 42
165 168 125
168 185 145
163 182 148
164 176 142
172 180 143
169 174 129
174 180 138
170 176 134
178 187 142
175 185 144
158 170 132
163 176 136
164 173 132
168 174 134
160 169 134
168 176 141
166 172 132
197 190 122
201 195 133
194 191 128
191 186 130
193 189 129
200 197 134
168 165 112
81 69 43
66 49 27
73 55 31
83 60 30
79 57 30
85 59 32
100 72 36
151 144 101
173 190 149
165 179 140
165 183 149
155 173 145
155 173 139
161 178 138
160 173 131
165 178 136
160 170 123
164 177 137
165 179 142
161 169 131
164 179 138
159 168 133
154 170 137
156 168 130
164 172 134
188 187 127
184 183 125
193 193 129
186 186 124
190 188 125
179 170 113
91 82 51
62 52 29
83 65 39
86 64 36
67 53 30
78 60 36
108 91 61
130 125 91
172 183 139
176 186 145
172 189 149
151 168 138
152 172 148
159 178 145
164 180 145
153 170 129
160 174 135
164 179 138
169 179 140
162 168 128
156 162 124
153 159 121
157 166 125
160 172 134
159 171 135
162 167 131
181 181 119
179 177 117
186 185 125
192 192 130
190 187 124
101 95 59
53 45 28
49 41 27
88 71 41
58 48 27
71 60 42
73 59 36
76 66 43
90 84 56
170 182 144
172 187 146
168 185 145
158 173 146
157 178 151
150 171 142
157 175 139
164 180 145
161 176 135
163 171 133
169 173 134
174 179 137
164 173 132
165 173 135
161 170 135
158 170 136
157 169 131
171 176 132
183 182 124
180 183 128
178 183 129
164 164 116
103 91 55
54 45 28
30 28 17
53 46 26
45 40 24
32 30 21
67 53 31
85 69 42
64 57 37
137 146 111
158 172 135
154 169 140
158 174 142
159 176 136
167 181 142
173 187 150
164 182 146
160 176 141
159 174 133
170 184 147
158 170 132
165 178 138
173 185 147
159 169 131
169 183 146
157 171 136
149 159 121
153 163 124
169 170 117
168 174 124
160 161 115
115 109 73
75 67 43
36 32 17
33 28 18
28 23 13
28 26 13
54 44 31
80 61 41
67 58 41
82 82 58
176 191 150
172 187 146
175 187 149
181 192 148
188 196 145
181 188 140
168 183 142
165 182 142
168 181 141
170 182 144
165 182 142
164 176 140
166 180 143
161 178 138
156 169 129
151 163 129
157 171 136
155 167 131
146 158 120
166 167 121
164 170 120
105 97 62
89 80 53
48 38 24
29 27 16
42 41 25
35 33 22
56 45 29
55 49 35
70 63 39
109 106 75
171 178 133
186 192 142
187 192 138
189 194 149
182 187 133
185 190 138
181 188 140
179 190 146
181 192 145
167 176 131
162 177 132
161 176 131
137 145 107
131 140 105
153 166 126
164 180 145
153 169 134
154 171 133
151 163 125
142 158 126
194 194 144
112 110 73
68 59 40
49 41 26
35 30 20
28 23 15
33 28 18
40 34 24
62 49 31
48 42 28
83 76 54
163 164 118
188 190 139
192 194 143
190 190 140
198 199 153
192 190 137
185 190 138
186 193 145
175 183 132
170 174 125
149 154 109
150 156 114
117 119 84
118 116 81
91 90 58
130 135 99
148 162 117
153 165 127
156 164 126
140 150 111
145 159 124
152 150 100
83 76 44
64 55 34
33 31 18
30 28 17
29 27 16
45 39 27
45 37 22
50 42 27
50 42 27
143 139 100
183 185 132
173 171 119
179 181 130
191 191 141
187 187 137
195 196 140
194 192 139
175 177 124
170 172 121
151 151 105
130 133 90
96 93 62
81 75 49
94 93 61
74 70 44
86 83 52
99 99 63
146 156 118
149 153 116
151 159 124
150 167 137
101 93 58
100 89 57
49 39 25
28 26 17
29 24 16
32 30 17
38 34 19
47 39 25
57 47 33
113 107 71
163 163 113
180 178 128
181 178 131
189 188 132
192 191 135
195 196 140
189 190 134
160 158 105
129 129 83
100 93 60
96 95 61
96 95 63
102 97 63
101 96 63
86 83 54
83 80 51
98 93 60
96 91 57
107 110 71
152 160 122
157 169 133
147 161 126
92 79 49
80 71 44
32 27 17
28 26 17
29 27 16
30 28 15
36 32 19
54 44 30
95 84 53
176 174 122
203 202 159
207 204 157
204 204 156
184 182 122
182 179 126
134 128 78
179 176 123
117 113 72
100 98 61
85 84 54
84 81 52
72 72 48
69 69 47
66 67 40
83 79 54
86 80 52
85 79 51
58 53 33
131 126 92
141 146 104
114 118 79
122 130 93
66 56 35
35 33 20
32 27 17
29 24 16
32 30 19
35 33 20
48 42 28
60 51 32
132 126 90
192 190 140
208 207 165
206 205 163
213 212 170
205 205 159
128 123 81
131 128 85
85 79 51
93 88 55
85 82 53
87 83 57
81 79 53
62 59 38
59 59 39
78 74 48
76 75 45
85 79 51
74 70 44
85 82 53
75 72 43
66 62 39
78 72 44
74 68 42
51 46 30
30 28 19
27 25 16
29 24 16
31 29 18
39 33 21
47 41 29
87 83 57
194 194 148
203 201 151
204 201 154
204 205 161
192 192 144
187 188 132
103 96 63
47 41 27
62 61 44
78 75 52
81 78 49
72 68 43
60 55 35
61 58 39
74 68 42
74 67 43
86 81 48
85 82 51
76 73 44
77 73 48
69 65 42
72 70 43
71 67 42
63 58 38
37 35 22
26 24 15
25 23 14
25 25 15
30 25 15
38 33 17
66 57 38
159 158 115
194 192 142
195 193 141
204 204 158
199 199 153
180 178 125
151 149 99
124 120 81
92 86 58
77 73 47
90 85 52
89 82 49
52 49 30
62 55 33
62 55 35
58 51 31
60 56 33
63 59 34
62 57 37
72 68 43
73 69 43
68 69 42
67 62 42
65 60 40
65 65 41
30 28 19
23 22 14
23 20 13
28 26 15
33 28 18
55 45 31
103 95 60
153 148 94
133 132 89
121 125 76
117 126 85
147 152 100
174 172 120
104 99 65
72 68 42
81 75 47
49 46 27
65 61 35
69 63 35
46 41 23
57 49 32
60 53 33
50 45 25
52 47 29
51 46 28
63 59 34
66 60 34
80 76 50
70 67 44
68 65 42
70 65 45
74 71 48
